# xmcd
#
# Track frame offsets: 
#        150
#        16375
#        33552
#        48710
#        64910
#        78952
#        101785
#        123265
#        137900
#        154715
#        182542
#        198075
#        217907
#
# Disc length: 3121 seconds
#
# Revision: 7
# Processed by: cddbd v1.5.2PL0 Copyright (c) Steve Scherf et al.
# Submitted via: ExactAudioCopyFreeDBPlugin 1.0
#
DISCID=af0c2f0d
DTITLE=Hothouse Flowers - People {EU,London Records,828101.2}
DYEAR=1988
DGENRE=Rock
TTITLE0=I'm Sorry
TTITLE1=Don't Go
TTITLE2=Forgiven
TTITLE3=It'll Be Easier In The Morning
TTITLE4=Hallelujah Jordan
TTITLE5=If You Go
TTITLE6=The Older We Get
TTITLE7=Yes I Was
TTITLE8=Love Don't Work This Way
TTITLE9=Ballad Of Katie
TTITLE10=Feet On The Ground
TTITLE11=Lonely Lane
TTITLE12=Saved
EXTD=
EXTT0=
EXTT1=
EXTT2=
EXTT3=
EXTT4=
EXTT5=
EXTT6=
EXTT7=
EXTT8=
EXTT9=
EXTT10=
EXTT11=
EXTT12=
PLAYORDER=
